<svg width="442" height="445" viewBox="0 0 442 445" fill="none" xmlns="http://www.w3.org/2000/svg">
<path d="M164 159.5C163.6 155.1 155.833 148 152 145L144 162.5L124 183.5C118.167 186.833 105.7 194.2 102.5 197C98.5 200.5 99 204 95 207C91.8 209.4 87.3333 216.667 85.5 220L81.5 249L72 272L97 281.5L106.5 276.5C109.333 271.667 115.9 262.3 119.5 263.5C124 265 147.5 262.5 151 262C154.5 261.5 163 250.5 164 249C165 247.5 169 228.5 169 224.5C169 220.5 170.5 216 173 212.5C175.5 209 174 205 173 204C172 203 168.5 203 166 202.5C163.5 202 164 195 166 186C168 177 164.5 165 164 159.5Z" fill="white"/>
<path d="M252.5 393L237.5 421L252.5 434L260.5 437L282 430L296 411L302 398L305 387L303 380.5C306.667 378.333 314.4 373.2 316 370C318 366 313 363 310.5 363C308 363 306.5 366.5 307 365C307.4 363.8 309.5 361.5 310.5 360.5V356.5H300.5C292.833 361.167 275.5 371.9 267.5 377.5C259.5 383.1 254.167 390.167 252.5 393Z" fill="white"/>
<path d="M409 94L197 63.5L173.5 218L391 252.5L409 94Z" fill="white"/>
<path d="M78.374 212.759C78.374 212.759 71.7286 226.83 70.3457 239.802C68.9703 252.773 74.2776 276.375 33.7102 282.509C33.7102 282.509 47.8008 276.323 43.2185 268.341C38.6363 260.359 16.794 254.89 35.878 235.792C54.9694 216.686 61.0167 212.153 53.2725 198.665C45.5283 185.17 25.5324 162.407 58.6247 138.955C91.7095 115.503 58.6247 135.469 58.6247 135.469C58.6247 135.469 80.6838 84.4503 141.344 110.67C141.344 110.67 172.359 196.743 61.3756 200.962C61.3756 200.962 68.4694 215.527 78.3665 212.767L78.374 212.759Z" fill="#EFE083"/>
<path d="M178.473 92.9704L190.986 101.693L196.989 66.3766L410.096 93.8831L389.331 251.172L201.346 220L199.014 236.517L300.534 252.698L289.545 282.741L246.242 285.089L241.981 302.198L339.868 320.832L362.42 300.365L356.38 261.495L403.922 268.991L418.977 259.109C418.977 259.109 438.898 108.59 439.279 105.718C439.66 102.837 428.089 81.5474 428.089 81.5474L186.157 47.3457L182.771 56.9359L178.48 92.9629L178.473 92.9704Z" fill="#393A3A"/>
<path d="M303.032 379.759L318.513 368.657L321.758 361.768L338.098 365.68L347.076 372.809C347.076 372.809 357.818 386.065 336.319 403.974C314.821 421.882 293.24 430.096 293.24 430.096H282.678C282.678 430.096 292.171 418.015 294.66 411.626C297.15 405.238 297.523 402.777 297.523 402.777C297.523 402.777 305.484 396.388 303.04 379.774L303.032 379.759Z" fill="#393A3A"/>
<path d="M61.3851 284.191L72.6575 268.332L93.543 279.172L104.292 292.053L129.483 312.281C129.483 312.281 166.485 357.113 152.11 392.811L141.279 411.61L27.1191 295.083C27.1191 295.083 51.5179 294.073 61.3851 284.199V284.191Z" fill="#A0A0A0"/>
<path d="M152.407 134.788C148.251 152.128 139.012 167.463 125.549 179.163C111.944 190.99 95.0952 198.411 77.7007 202.66C74.5462 203.43 75.8842 208.3 79.0387 207.53C97.3004 203.071 114.844 195.142 129.114 182.739C143.175 170.515 152.923 154.245 157.266 136.134C158.021 132.977 153.162 131.631 152.399 134.795L152.407 134.788Z" fill="#231815"/>
<path d="M94.3708 205.413C85.468 211.173 82.6125 221.362 81.4464 231.348C80.1756 242.218 79.1216 252.242 73.6722 261.959C64.2013 278.843 46.5152 290.969 27.1173 292.555C23.903 292.817 23.8731 297.867 27.1173 297.605C46.2535 296.041 63.6556 285.501 74.6664 269.851C80.2952 261.847 83.9057 252.646 85.2437 242.951C86.806 231.633 86.0137 216.828 96.9198 209.774C99.6408 208.016 97.1142 203.64 94.3708 205.413Z" fill="#231815"/>
<path d="M50.5006 131.382C28.9125 141.407 24.4274 168.06 32.807 188.453C36.8585 198.327 47.6152 211.74 37.5238 221.375C30.2206 228.347 19.9349 230.509 15.3601 240.369C10.2172 251.448 14.5752 264.269 24.861 270.516C27.6417 272.206 30.1832 267.845 27.41 266.155C17.3709 260.058 15.0312 246.278 23.2762 237.571C29.1292 231.392 38.204 229.305 43.3918 222.333C49.4466 214.201 46.1575 204.484 42.1359 196.263C36.851 185.445 32.3435 174.875 33.9955 162.51C35.5354 150.997 42.4349 140.674 53.0496 135.744C55.9948 134.375 53.4308 130.021 50.5006 131.382Z" fill="#231815"/>
<path d="M50.9137 127.965C61.4835 110.7 79.0201 98.3565 98.9562 94.6535C119.789 90.786 145.242 96.3067 159.549 112.891C167.518 122.13 170.657 135.7 164.371 146.682C162.756 149.509 167.114 152.053 168.729 149.233C174.328 139.448 173.819 127.441 168.751 117.529C163.564 107.378 153.906 99.9648 143.702 95.3342C121.202 85.1306 94.4338 86.3948 73.1596 99.0522C62.2759 105.523 53.1637 114.627 46.5557 125.422C44.8514 128.197 49.2169 130.74 50.9137 127.972V127.965Z" fill="#231815"/>
<path d="M157.455 152.623C162.202 160.306 164.242 169.245 162.971 178.222C162.523 181.401 167.382 182.77 167.838 179.561C169.295 169.208 167.322 158.996 161.805 150.072C160.101 147.312 155.736 149.848 157.447 152.623H157.455Z" fill="#231815"/>
<path d="M145.807 184.766C147.623 189.255 148.468 193.818 148.319 198.658C148.214 201.905 153.26 201.905 153.364 198.658C153.529 193.406 152.647 188.297 150.673 183.427C149.47 180.457 144.589 181.752 145.807 184.766Z" fill="#231815"/>
<path d="M72.6493 286.72C96.3678 289.42 118.756 301.861 133.467 320.705C141.076 330.459 146.496 341.86 149.523 353.837C151.078 359.986 151.998 366.27 152.244 372.606C152.356 375.471 152.334 378.343 152.169 381.208C152.005 384.216 152.289 388.629 150.323 391.023C148.357 393.417 151.826 397.105 153.889 394.591C155.556 392.572 156.094 391.554 156.46 388.884C156.826 386.213 157.073 383.774 157.215 381.208C157.522 375.68 157.32 370.13 156.64 364.639C155.346 354.196 152.424 344.059 147.901 334.559C138.998 315.85 123.689 300.552 105.203 291.283C94.9774 286.151 84.0114 282.965 72.6493 281.67C69.4275 281.304 69.4574 286.353 72.6493 286.72Z" fill="#231815"/>
<path d="M265.441 383.751C275.345 373.233 287.507 364.93 301.082 359.91C302.33 359.447 308.497 356.574 309.686 358.033C311.016 359.656 301.971 364.533 300.783 365.289C293.517 369.912 286.244 374.543 278.978 379.166C276.242 380.901 278.776 385.277 281.527 383.527C291.065 377.46 300.843 371.648 310.187 365.289C312.885 363.449 316.01 360.666 314.956 356.985C314.096 353.986 311.099 352.781 308.213 352.834C304.147 352.901 299.983 354.876 296.283 356.402C292.074 358.137 287.986 360.15 284.054 362.446C275.846 367.256 268.393 373.263 261.875 380.183C259.647 382.547 263.213 386.123 265.441 383.751Z" fill="#231815"/>
<path d="M314.581 368.754C304.864 376.182 295.153 383.611 285.436 391.039C282.887 392.984 285.398 397.375 287.985 395.4C297.702 387.972 307.413 380.544 317.13 373.115C319.679 371.17 317.168 366.779 314.581 368.754Z" fill="#231815"/>
<path d="M300.504 391.083C300.34 396.686 296.654 401.646 291.317 403.374C288.237 404.369 289.561 409.246 292.655 408.244C300.175 405.805 305.311 398.998 305.55 391.083C305.647 387.829 300.601 387.837 300.504 391.083Z" fill="#231815"/>
<path d="M292.217 410.945C287.523 424.448 274.105 433.597 259.88 433.327C256.628 433.267 256.628 438.317 259.88 438.377C276.438 438.691 291.657 427.881 297.084 412.284C298.153 409.209 293.279 407.885 292.217 410.945Z" fill="#231815"/>
<path d="M250.23 393.028C246.171 400.314 242.112 407.593 238.06 414.879C236.475 417.722 240.833 420.273 242.418 417.43C246.477 410.144 250.536 402.865 254.588 395.579C256.172 392.736 251.814 390.185 250.23 393.028Z" fill="#231815"/>
<path d="M322.805 365.784C330.781 364.587 338.667 367.512 344.191 373.302C346.434 375.658 349.999 372.083 347.757 369.734C340.887 362.53 331.244 359.448 321.467 360.914C318.267 361.393 319.628 366.263 322.805 365.784Z" fill="#231815"/>
<path d="M316.167 387.336C321.07 381.216 327.932 377.252 335.774 376.489C335.55 374.835 335.325 373.182 335.101 371.529C333.389 371.783 331.685 372.038 329.973 372.285C326.774 372.756 328.134 377.626 331.311 377.154C333.023 376.9 334.727 376.646 336.439 376.399C339.227 375.987 338.599 371.162 335.766 371.439C326.632 372.329 318.357 376.563 312.594 383.767C310.583 386.281 314.126 389.872 316.159 387.336H316.167Z" fill="#231815"/>
<path d="M305.019 384.785C311.702 395.325 325.06 400.307 336.983 396.417C340.055 395.415 338.739 390.538 335.644 391.547C325.897 394.727 314.909 390.942 309.384 382.234C307.65 379.496 303.277 382.025 305.026 384.785H305.019Z" fill="#231815"/>
<path d="M336.303 399.956C325.33 414.027 309.976 423.789 292.559 427.657C289.39 428.36 290.728 433.23 293.897 432.527C312.054 428.495 328.425 418.209 339.869 403.532C341.842 400.996 338.299 397.397 336.303 399.963V399.956Z" fill="#231815"/>
<path d="M353.587 359.738C356.121 357.053 357.415 353.948 357.101 350.23C356.974 348.779 356.615 347.373 356.286 345.959C356.189 345.547 355.882 344.882 355.942 344.455C356.047 343.722 355.426 344.41 356.428 344.104C358.738 343.408 362.513 344.365 364.83 344.582C368.238 344.904 371.64 345.301 375.048 345.622C381.298 346.206 387.577 346.505 393.811 345.667C403.82 344.321 415.952 340.251 422.53 332.097C428.54 324.654 426.552 314.847 419.809 308.593C410.353 299.81 396.801 301.726 385.17 303.73C381.978 304.284 383.331 309.146 386.508 308.6C397.862 306.648 417.141 304.426 420.871 319.492C424.145 332.718 403.349 339.211 393.788 340.618C386.366 341.71 378.808 340.977 371.393 340.214C367.984 339.862 364.583 339.473 361.167 339.226C358.999 339.069 356.555 338.732 354.41 339.368C351.427 340.259 350.575 342.794 351.038 345.63C351.681 349.579 353.199 352.789 350.007 356.162C347.779 358.526 351.337 362.102 353.572 359.731L353.587 359.738Z" fill="#231815"/>
<path d="M221.657 242.802C242.243 246.048 262.822 249.287 283.409 252.534C316.254 257.711 349.1 262.887 381.945 268.064C389.533 269.261 397.12 270.458 404.707 271.655C406.471 271.932 407.69 270.974 407.899 269.223C410.463 248.031 413.027 226.838 415.591 205.638C419.657 172.004 423.731 138.379 427.798 104.746C428.732 97.0106 429.667 89.2755 430.608 81.5405C430.728 80.568 429.749 79.2439 428.755 79.1093C401.284 75.2642 373.812 71.4191 346.341 67.5666C302.522 61.4324 258.703 55.2982 214.877 49.1566C204.778 47.7427 194.671 46.3289 184.573 44.915C182.808 44.6682 181.59 45.5733 181.381 47.3463C179.572 62.5545 177.755 77.7553 175.946 92.9635C175.565 96.1802 180.611 96.1578 180.992 92.9635C182.801 77.7553 184.617 62.5545 186.426 47.3463L183.235 49.7775C210.706 53.6226 238.177 57.4676 265.648 61.3202C309.467 67.4543 353.286 73.5885 397.112 79.7302C407.211 81.144 417.318 82.5579 427.416 83.9717C426.796 83.1638 426.183 82.3484 425.563 81.5405C422.999 102.733 420.435 123.926 417.871 145.126C413.804 178.76 409.73 212.385 405.664 246.018C404.73 253.753 403.795 261.488 402.853 269.223C403.915 268.416 404.984 267.6 406.045 266.792C385.459 263.546 364.88 260.307 344.293 257.06C311.448 251.883 278.602 246.707 245.756 241.53C238.169 240.333 230.582 239.136 222.995 237.939C219.818 237.438 218.45 242.3 221.657 242.809V242.802Z" fill="#231815"/>
<path d="M245.586 287.527C273.49 292.517 301.395 297.514 329.3 302.504C333.269 303.214 337.231 303.925 341.2 304.636C344.377 305.204 345.737 300.342 342.538 299.766C314.633 294.776 286.729 289.779 258.824 284.789C254.855 284.079 250.893 283.368 246.924 282.657C243.747 282.089 242.387 286.951 245.586 287.527Z" fill="#231815"/>
<path d="M245.586 306.161C273.49 311.151 301.395 316.148 329.3 321.138C333.269 321.848 337.231 322.559 341.2 323.27C344.377 323.838 345.737 318.976 342.538 318.4C314.633 313.41 286.729 308.413 258.824 303.423C254.855 302.713 250.893 302.002 246.924 301.291C243.747 300.723 242.387 305.585 245.586 306.161Z" fill="#231815"/>
<path d="M214.586 226.725C234.47 229.792 254.347 232.866 274.23 235.933C305.663 240.788 337.096 245.643 368.521 250.491C375.825 251.62 383.128 252.742 390.431 253.872C392.195 254.141 393.413 253.199 393.623 251.441C395.761 233.682 397.906 215.93 400.044 198.171C403.453 169.879 406.861 141.594 410.277 113.302C411.055 106.824 411.84 100.346 412.617 93.8676C412.737 92.8951 411.757 91.571 410.763 91.4364C386.686 88.1 362.616 84.7636 338.539 81.4347C300.461 76.1608 262.382 70.8869 224.297 65.613C215.513 64.3937 206.73 63.1818 197.947 61.9625C196.728 61.7904 195.061 62.2392 194.845 63.7279C192.744 77.7766 190.644 91.8179 188.551 105.867C188.072 109.046 192.939 110.415 193.417 107.206C195.517 93.1569 197.618 79.1157 199.711 65.0669C198.679 65.6579 197.64 66.2414 196.609 66.8324C220.686 70.1688 244.756 73.5052 268.833 76.8341C306.912 82.108 344.99 87.3818 383.075 92.6557C391.859 93.8751 400.642 95.0869 409.425 96.3063C408.805 95.4984 408.192 94.683 407.571 93.8751C405.433 111.634 403.288 129.386 401.15 147.145C397.742 175.437 394.333 203.722 390.917 232.013C390.139 238.492 389.355 244.97 388.577 251.448C389.639 250.64 390.707 249.825 391.769 249.017C371.885 245.95 352.009 242.875 332.125 239.808C300.692 234.953 269.259 230.098 237.834 225.251C230.531 224.121 223.228 222.999 215.924 221.87C212.748 221.376 211.38 226.246 214.586 226.74V226.725Z" fill="#231815"/>
<path d="M425.915 82.8103C429.1 88.6752 432.291 94.5401 435.476 100.405C435.999 101.362 436.44 102.657 437.15 103.487C438.062 104.564 436.933 103.12 437.128 102.971C436.859 103.173 436.866 104.961 436.821 105.282C435.453 115.591 434.093 125.907 432.725 136.215C428.397 168.898 424.076 201.581 419.748 234.272C418.649 242.553 417.558 250.827 416.459 259.108C416.033 262.317 421.086 262.287 421.505 259.108C424.48 236.628 427.455 214.149 430.43 191.662C434.175 163.362 437.92 135.063 441.665 106.771C442.031 103.988 442.398 102.589 441.015 100.046C437.434 93.4554 433.846 86.8649 430.266 80.2669C428.711 77.4093 424.353 79.9602 425.908 82.8178L425.915 82.8103Z" fill="#231815"/>
<path d="M348.847 318.319C353.414 314.317 357.63 310.091 361.614 305.512C363.737 303.074 360.187 299.483 358.049 301.944C354.065 306.53 349.849 310.756 345.281 314.751C342.829 316.898 346.41 320.451 348.847 318.319Z" fill="#231815"/>
<path d="M295.446 262.295C293.114 268.886 290.774 275.476 288.442 282.067C287.358 285.134 292.224 286.458 293.308 283.406C295.64 276.815 297.98 270.225 300.312 263.634C301.396 260.567 296.53 259.243 295.446 262.295Z" fill="#231815"/>
<path d="M353.95 264.361C355.916 274.692 358.024 285 359.99 295.331C360.596 298.518 365.462 297.172 364.857 293.992C362.891 283.661 360.783 273.353 358.817 263.022C358.211 259.835 353.345 261.182 353.95 264.361Z" fill="#231815"/>
<path d="M154.897 411.213C161.572 410.787 168.397 411.722 175.013 412.5C183.781 413.532 192.519 414.841 201.25 416.15C208.643 417.258 216.238 417.961 223.519 419.659C229.215 420.983 234.754 422.965 239.837 425.868C243.305 427.85 254.936 434.725 250.653 439.909C248.598 442.393 252.148 445.983 254.219 443.477C262.823 433.079 245.772 422.808 237.938 419.232C228.467 414.909 218.473 413.659 208.307 412.141C198.791 410.719 189.283 409.261 179.737 408.034C171.596 406.987 163.12 405.64 154.89 406.164C151.668 406.366 151.645 411.423 154.89 411.213H154.897Z" fill="#231815"/>
<path d="M151.757 193.077C155.823 190.938 158.731 187.489 160.488 183.285C161.019 182.021 159.92 180.517 158.724 180.18C157.274 179.769 156.145 180.689 155.622 181.946C154.381 184.923 152.026 187.242 149.208 188.723C146.39 190.205 148.879 194.596 151.757 193.085V193.077Z" fill="#231815"/>
<path d="M171.268 206.55C172.606 205.787 173.077 207.732 172.86 208.667C172.457 210.38 170.842 211.413 169.399 212.198C166.551 213.762 169.093 218.123 171.948 216.559C175.656 214.525 178.878 210.769 177.786 206.251C176.822 202.264 172.322 200.132 168.719 202.196C165.901 203.805 168.443 208.173 171.268 206.558V206.55Z" fill="#231815"/>
<path d="M115.795 260.949C113.567 264.577 110.757 267.861 107.781 270.891C105.255 273.457 101.443 277.684 97.5406 277.811C94.3039 277.916 94.2889 282.965 97.5406 282.86C102.429 282.696 106.638 278.993 110.002 275.791C113.814 272.155 117.387 267.996 120.153 263.5C121.857 260.725 117.492 258.181 115.795 260.949Z" fill="#231815"/>
<path d="M166.67 223.59C165.855 236.166 164.57 252.077 152.027 258.787C142.496 263.881 128.794 262.101 118.65 259.79C115.488 259.071 114.135 263.934 117.312 264.659C129.227 267.375 144.738 269.155 155.652 262.527C169.01 254.418 170.804 237.707 171.716 223.59C171.925 220.344 166.88 220.359 166.67 223.59Z" fill="#231815"/>
<path d="M129.35 245.091C132.422 239.361 139.681 236.623 145.683 239.443C148.606 240.812 151.17 236.466 148.232 235.082C139.808 231.125 129.455 234.229 124.992 242.548C123.46 245.413 127.81 247.964 129.35 245.099V245.091Z" fill="#231815"/>
<path d="M59.1335 87.2176C56.3826 85.7065 54.5438 81.8914 52.9217 79.333C50.9258 76.1836 49.1243 72.8846 46.9864 69.8325C44.2655 65.95 40.4233 59.6139 46.0221 56.068C51.4267 52.6419 55.239 60.7584 50.4923 63.8779C44.8635 67.5808 39.3917 61.5589 39.2796 56.098C39.1675 50.7193 44.1683 43.5902 49.7373 42.7C54.2747 41.9744 52.9217 47.9964 48.7356 47.3755C45.7755 46.9416 43.6376 44.0989 43.0246 41.346C41.5819 34.9351 46.9341 30.0203 53.116 30.529C52.3087 29.9081 51.4939 29.2946 50.6866 28.6737C51.6359 32.1448 48.6459 35.8103 44.9532 35.2119C42.165 34.763 39.8851 31.9578 39.5936 29.2198C38.9357 23.0707 45.8801 18.515 51.3594 20.5647C58.0346 23.0632 55.1194 29.9305 50.1036 32.3019C44.714 34.8453 36.7979 33.1846 33.7405 27.7761C32.253 25.1503 31.8942 21.4549 33.7181 18.8815C35.4449 16.4428 39.2497 15.216 41.9258 16.8393C47.6442 20.2954 43.974 29.4817 40.0495 32.6684C35.3402 36.4911 26.8634 35.2717 25.5852 28.4643C24.6732 23.6243 31.0869 19.0087 35.116 22.4498L34.4656 19.9961C34.0769 21.1332 33.4415 23.0782 32.0885 23.4073C31.0645 23.6617 31.1766 22.9809 30.444 23.2652C29.4947 22.8762 28.5453 22.4947 27.596 22.1057C28.5229 23.5944 29.5545 25.2775 29.4349 27.1178C29.39 28.4792 28.7397 29.4517 27.4988 30.0502C26.5495 29.923 26.1234 29.5191 26.2281 28.8234C27.5437 27.806 28.1641 25.3374 26.2281 24.4621C16.1142 19.8765 6.13496 26.8933 2.50205 36.4462C-0.906597 45.4006 -1.27288 57.841 4.18395 66.1221C9.55108 74.276 19.9265 75.2934 27.2521 69.062C36.3643 61.312 35.2505 48.6023 30.6757 38.6829C29.7264 36.6257 29.0835 34.4339 26.7139 33.9401C24.3443 33.4464 21.6608 34.2618 19.65 35.3989C15.5984 37.688 12.743 42.0866 12.2272 46.7022C11.0536 57.2949 20.4274 67.2217 29.8909 70.401C40.0645 73.8197 50.8436 67.3713 49.969 56.098C49.4756 49.8142 47.8535 44.2785 49.7672 38.0246C51.4715 32.4665 55.3511 27.4394 60.9425 25.4346C66.4441 23.4672 73.254 24.2527 77.3952 28.6438C81.8802 33.3941 81.94 40.583 80.2058 46.5152C78.3819 52.7616 74.2706 58.978 68.6119 62.3443C62.9981 65.6882 55.665 65.4264 51.4341 60.0627C49.4233 57.5118 45.8726 61.11 47.8685 63.631C56.3602 74.3957 71.4525 69.0545 78.7108 59.9355C85.7897 51.0485 89.774 36.8726 82.4708 26.9008C75.3171 17.1385 60.4566 17.3255 51.9499 25.1204C47.3527 29.332 44.6991 35.354 43.8917 41.4732C43.518 44.3458 43.6002 47.1511 44.0039 50.0162C44.6243 54.3624 46.4034 59.8533 42.905 63.4664C36.469 70.1018 26.2206 64.1921 21.429 58.5815C18.5212 55.1778 16.2712 50.3902 17.5196 45.8569C18.6707 41.6453 22.3036 38.5782 26.7214 38.9971C25.9963 38.5782 25.2712 38.1667 24.5462 37.7478C28.6724 45.3033 32.0213 55.8511 25.8767 63.3243C21.0628 69.1892 12.6084 70.0345 8.31021 63.1822C4.57266 57.2201 4.61751 49.1409 6.01536 42.4756C7.62998 34.8079 14.5071 24.6566 23.694 28.8234V24.4621C19.194 27.9332 21.5711 35.6158 27.5885 35.1221C35.8186 34.4488 35.1459 24.6865 31.9615 19.5623C31.4233 18.6945 30.1525 17.9913 29.1134 18.4028C24.905 20.0635 24.9124 25.5019 28.5603 27.9481C33.4714 31.2396 37.9341 25.4645 39.3394 21.3427C39.6085 20.5572 39.3319 19.4351 38.6891 18.889C33.4415 14.4081 25.204 16.2408 21.7804 22.1805C17.7513 29.175 23.2978 37.4636 30.302 39.5432C38.3751 41.9445 46.3436 35.8777 48.8926 28.4194C51.4042 21.0659 48.1899 11.124 39.2273 11.1016C30.7879 11.0792 25.7795 19.48 28.0819 27.2001C30.5636 35.5186 40.0645 39.8349 48.2572 38.2041C55.3511 36.7903 62.7365 29.9679 59.8436 22.188C57.3395 15.4479 48.4815 13.4131 42.4565 16.368C34.1292 20.4525 31.513 32.3468 39.5263 38.1817C47.2331 43.7997 58.1243 36.7155 55.5679 27.3497C55.2539 26.2051 54.2522 25.5917 53.1384 25.4945C45.753 24.881 38.8161 30.0053 37.8967 37.5084C37.067 44.256 41.4698 51.8938 48.7431 52.4399C54.7232 52.8887 60.494 46.1786 56.6667 40.5381C52.077 33.7756 42.8228 39.7152 39.0254 44.1064C34.204 49.687 32.4473 57.9457 36.7306 64.3866C40.4009 69.9073 48.4217 71.8224 53.8635 67.708C58.7298 64.0275 59.0662 56.1279 54.3345 52.1332C49.229 47.8318 41.552 51.1308 39.1226 56.7637C35.8336 64.4015 41.6044 70.5357 45.3195 76.6025C48.2423 81.3752 51.4715 88.7661 56.6069 91.5863C59.4549 93.1498 62.0039 88.7961 59.1559 87.2251L59.1335 87.2176Z" fill="#231815"/>
<path d="M53.5509 50.5619C66.2511 54.1825 73.173 41.024 74.2868 30.4987C75.4679 19.3375 72.1639 6.65021 60.9587 1.89998C50.7178 -2.43882 37.6588 2.47599 33.9287 13.3005C29.9669 24.7984 41.344 33.7453 52.168 30.7081C63.3507 27.5737 67.9853 12.6123 57.4006 5.69269C56.2195 4.92217 54.6647 5.50567 53.9471 6.59785C53.4836 7.30103 53.0276 8.0117 52.5642 8.71488C50.7851 11.4453 55.1506 13.9738 56.9222 11.2658C57.3856 10.5626 57.8416 9.85195 58.305 9.14876C57.1539 9.44799 56.0027 9.7547 54.8515 10.0539C58.7685 12.6123 59.5085 18.163 56.7876 21.8884C54.1788 25.4641 49.148 27.0052 44.9321 25.9579C38.8473 24.4393 36.5749 18.4921 39.5276 13.0537C41.8299 8.81213 46.3897 5.96199 51.1289 5.39346C77.0601 2.26653 72.9936 50.8461 54.8889 45.6919C51.7569 44.8017 50.4263 49.6717 53.5509 50.5619Z" fill="#231815"/>
<path d="M83.007 275.132C91.0054 279.381 97.4938 285.531 102.113 293.326C103.765 296.116 108.131 293.58 106.471 290.775C101.433 282.277 94.2795 275.402 85.556 270.771C82.6856 269.245 80.1366 273.606 83.007 275.132Z" fill="#231815"/>
<g clip-path="url(#clip0_708_861)">
<path d="M205.453 155.361L205.796 152.896L199.143 151.969C198.303 151.852 197.698 151.574 197.335 151.137C196.973 150.7 196.828 150.156 196.92 149.497C196.944 149.325 196.993 149.166 197.082 148.995C197.17 148.823 197.284 148.664 197.437 148.492C197.59 148.32 197.741 148.157 197.902 147.995C198.062 147.834 198.255 147.64 198.48 147.413L206.813 138.994C207.361 138.435 207.801 138.046 208.138 137.807C208.475 137.569 208.846 137.482 209.261 137.54C210.607 137.728 211.168 138.588 210.953 140.132L209.522 150.397L210.091 150.476C210.768 150.57 211.306 150.737 211.686 150.984C212.075 151.231 212.217 151.665 212.13 152.288C212.058 152.803 211.835 153.149 211.469 153.337C211.102 153.525 210.58 153.572 209.912 153.479L209.099 153.366L208.756 155.83C208.662 156.507 208.438 156.992 208.093 157.284C207.749 157.577 207.32 157.683 206.814 157.612C206.309 157.542 205.944 157.316 205.685 156.93C205.426 156.544 205.342 156.026 205.435 155.358L205.453 155.361ZM200.514 149.132L206.21 149.926L207.283 142.225L200.514 149.132Z" fill="#707070"/>
<path d="M228.025 150.509C227.822 151.962 227.558 153.196 227.242 154.21C226.926 155.224 226.46 156.126 225.863 156.907C225.112 157.87 224.224 158.566 223.198 158.993C222.162 159.429 221.067 159.561 219.902 159.399C218.557 159.212 217.409 158.665 216.449 157.758C215.49 156.852 214.833 155.683 214.478 154.272C214.309 153.503 214.215 152.661 214.211 151.759C214.208 150.857 214.28 149.882 214.423 148.853C214.609 147.517 214.849 146.326 215.133 145.279C215.417 144.233 215.771 143.344 216.175 142.618C216.876 141.418 217.769 140.557 218.856 140.028C219.942 139.498 221.18 139.33 222.552 139.521C223.464 139.648 224.265 139.907 224.973 140.31C225.672 140.711 226.262 141.235 226.751 141.883C227.232 142.529 227.612 143.3 227.883 144.194C228.347 145.75 228.404 147.856 228.031 150.528L228.025 150.509ZM224.432 149.741C224.657 148.125 224.743 146.784 224.697 145.729C224.642 144.672 224.425 143.85 224.037 143.262C223.65 142.675 223.054 142.325 222.242 142.211C221.077 142.049 220.183 142.523 219.568 143.633C218.953 144.744 218.465 146.526 218.125 148.973C217.893 150.634 217.802 152.011 217.845 153.094C217.887 154.176 218.109 155.026 218.493 155.641C218.878 156.247 219.463 156.605 220.248 156.714C221.034 156.824 221.741 156.637 222.272 156.131C222.811 155.626 223.248 154.868 223.576 153.837C223.912 152.816 224.194 151.447 224.432 149.741Z" fill="#707070"/>
<path d="M237.719 159.857L238.062 157.392L231.408 156.465C230.569 156.348 229.963 156.071 229.601 155.634C229.238 155.196 229.093 154.652 229.185 153.993C229.209 153.821 229.259 153.662 229.347 153.491C229.436 153.319 229.55 153.16 229.703 152.988C229.855 152.816 230.007 152.653 230.168 152.491C230.328 152.33 230.521 152.136 230.746 151.909L239.079 143.49C239.626 142.931 240.067 142.542 240.404 142.303C240.741 142.065 241.112 141.979 241.527 142.036C242.872 142.224 243.433 143.084 243.218 144.628L241.788 154.893L242.357 154.972C243.034 155.067 243.572 155.234 243.952 155.48C244.341 155.727 244.483 156.161 244.396 156.784C244.324 157.299 244.101 157.645 243.734 157.833C243.367 158.021 242.846 158.068 242.177 157.975L241.365 157.862L241.022 160.326C240.927 161.004 240.703 161.488 240.359 161.78C240.014 162.073 239.585 162.179 239.08 162.108C238.574 162.038 238.21 161.812 237.951 161.426C237.692 161.04 237.607 160.523 237.701 159.854L237.719 159.857ZM232.779 153.628L238.476 154.422L239.549 146.721L232.779 153.628Z" fill="#707070"/>
<path d="M260.575 147.011L266.544 159.521L268.155 147.965C268.259 147.216 268.501 146.67 268.877 146.345C269.255 146.011 269.714 145.891 270.264 145.968C270.815 146.045 271.249 146.298 271.523 146.714C271.796 147.129 271.879 147.721 271.775 148.47L269.645 163.754C269.407 165.461 268.585 166.211 267.167 166.014C266.815 165.964 266.507 165.866 266.232 165.727C265.966 165.588 265.718 165.388 265.505 165.128C265.292 164.878 265.094 164.583 264.927 164.256C264.761 163.93 264.586 163.602 264.423 163.257L258.615 150.906L257.029 162.291C256.926 163.031 256.676 163.567 256.28 163.898C255.884 164.23 255.416 164.358 254.874 164.282C254.332 164.207 253.898 163.953 253.618 163.518C253.338 163.083 253.244 162.509 253.347 161.768L255.433 146.8C255.521 146.168 255.663 145.673 255.849 145.33C256.076 144.957 256.392 144.67 256.824 144.472C257.248 144.274 257.69 144.206 258.141 144.269C258.493 144.318 258.793 144.415 259.029 144.568C259.266 144.721 259.461 144.904 259.624 145.12C259.786 145.345 259.951 145.617 260.105 145.96C260.261 146.295 260.423 146.649 260.584 147.012L260.575 147.011Z" fill="#707070"/>
<path d="M287.929 161.406C287.779 162.48 287.468 163.458 287.008 164.314C286.547 165.18 285.951 165.888 285.218 166.458C284.487 167.019 283.658 167.418 282.724 167.647C281.79 167.876 280.773 167.909 279.672 167.756C278.571 167.602 277.612 167.285 276.794 166.812C275.968 166.338 275.28 165.726 274.73 164.978C274.181 164.23 273.802 163.385 273.593 162.445C273.383 161.505 273.359 160.489 273.511 159.397C273.663 158.304 273.975 157.326 274.436 156.461C274.897 155.595 275.492 154.887 276.205 154.333C276.917 153.779 277.755 153.38 278.696 153.161C279.639 152.934 280.647 152.9 281.721 153.049C282.796 153.199 283.782 153.52 284.626 153.997C285.471 154.474 286.168 155.086 286.709 155.824C287.251 156.562 287.629 157.416 287.838 158.356C288.047 159.305 288.071 160.321 287.92 161.404L287.929 161.406ZM284.3 160.9C284.505 159.428 284.341 158.228 283.805 157.315C283.27 156.403 282.452 155.866 281.359 155.714C280.655 155.616 280.007 155.709 279.414 156.004C278.821 156.299 278.33 156.783 277.941 157.455C277.553 158.128 277.292 158.948 277.158 159.905C277.025 160.862 277.056 161.694 277.246 162.448C277.437 163.192 277.767 163.791 278.256 164.245C278.736 164.699 279.343 164.967 280.065 165.068C281.157 165.22 282.091 164.927 282.855 164.196C283.621 163.456 284.105 162.364 284.309 160.901L284.3 160.9Z" fill="#707070"/>
<path d="M291.951 154.787L292.348 154.843L292.651 152.667C292.733 152.08 292.814 151.631 292.887 151.301C292.961 150.971 293.09 150.704 293.269 150.48C293.447 150.256 293.675 150.076 293.967 149.961C294.25 149.844 294.559 149.804 294.884 149.849C295.345 149.913 295.736 150.143 296.059 150.537C296.271 150.797 296.393 151.109 296.411 151.442C296.428 151.785 296.398 152.26 296.314 152.865L295.971 155.329L297.298 155.514C297.812 155.586 298.184 155.757 298.421 156.039C298.658 156.32 298.751 156.646 298.697 157.034C298.629 157.522 298.391 157.838 297.977 157.974C297.561 158.118 296.997 158.132 296.284 158.033L295.607 157.938L294.68 164.592C294.601 165.161 294.558 165.596 294.561 165.91C294.554 166.222 294.628 166.481 294.774 166.694C294.919 166.908 295.185 167.046 295.573 167.1C295.781 167.129 296.074 167.133 296.446 167.111C296.817 167.089 297.102 167.092 297.309 167.121C297.598 167.161 297.844 167.315 298.046 167.583C298.248 167.85 298.325 168.155 298.277 168.498C298.195 169.085 297.818 169.483 297.134 169.701C296.459 169.92 295.517 169.945 294.325 169.779C293.197 169.622 292.365 169.313 291.832 168.852C291.298 168.391 290.991 167.814 290.905 167.112C290.818 166.419 290.853 165.503 291.009 164.384L291.977 157.442L291.498 157.375C290.975 157.302 290.595 157.12 290.358 156.839C290.121 156.557 290.021 156.221 290.074 155.842C290.126 155.463 290.315 155.167 290.638 154.963C290.961 154.76 291.392 154.7 291.943 154.777L291.951 154.787Z" fill="#707070"/>
<path d="M320.345 156.37L312.59 155.289L311.896 160.263L318.379 161.167C318.983 161.251 319.407 161.448 319.667 161.76C319.927 162.073 320.021 162.454 319.959 162.905C319.896 163.357 319.692 163.696 319.357 163.917C319.023 164.137 318.553 164.21 317.966 164.128L311.484 163.224L310.592 169.625C310.479 170.438 310.214 171.018 309.79 171.354C309.364 171.7 308.868 171.824 308.299 171.745C307.731 171.665 307.271 171.399 306.956 170.95C306.641 170.501 306.545 169.871 306.657 169.068L308.74 154.117C308.82 153.549 308.965 153.1 309.186 152.771C309.407 152.434 309.706 152.209 310.08 152.095C310.455 151.982 310.927 151.965 311.487 152.043L320.767 153.336C321.39 153.423 321.841 153.624 322.109 153.946C322.377 154.269 322.48 154.652 322.417 155.103C322.354 155.554 322.148 155.912 321.802 156.149C321.456 156.386 320.977 156.458 320.345 156.37Z" fill="#707070"/>
<path d="M337.122 168.26C336.972 169.334 336.661 170.313 336.201 171.169C335.74 172.034 335.145 172.743 334.412 173.312C333.68 173.873 332.851 174.273 331.918 174.502C330.984 174.731 329.967 174.764 328.865 174.61C327.764 174.457 326.805 174.139 325.988 173.666C325.161 173.192 324.473 172.581 323.924 171.833C323.375 171.084 322.995 170.24 322.786 169.299C322.576 168.359 322.552 167.343 322.704 166.251C322.857 165.159 323.168 164.181 323.629 163.315C324.09 162.45 324.686 161.741 325.398 161.187C326.11 160.633 326.948 160.234 327.89 160.016C328.832 159.788 329.84 159.754 330.915 159.904C331.989 160.053 332.975 160.375 333.82 160.852C334.664 161.328 335.361 161.941 335.903 162.679C336.444 163.417 336.822 164.27 337.032 165.21C337.24 166.16 337.264 167.176 337.113 168.259L337.122 168.26ZM333.493 167.754C333.698 166.283 333.534 165.082 332.998 164.17C332.463 163.258 331.645 162.72 330.553 162.568C329.848 162.47 329.2 162.564 328.607 162.859C328.014 163.153 327.523 163.637 327.135 164.31C326.747 164.983 326.485 165.802 326.352 166.759C326.218 167.716 326.25 168.549 326.439 169.302C326.63 170.047 326.961 170.645 327.45 171.1C327.929 171.553 328.536 171.822 329.258 171.922C330.351 172.075 331.284 171.781 332.049 171.05C332.815 170.31 333.298 169.218 333.502 167.756L333.493 167.754Z" fill="#707070"/>
<path d="M348.632 175.285L348.696 174.825C348.186 175.315 347.671 175.713 347.141 176.016C346.61 176.32 346.048 176.527 345.463 176.629C344.869 176.73 344.215 176.731 343.493 176.631C342.618 176.509 341.857 176.219 341.212 175.761C340.568 175.303 340.104 174.732 339.814 174.038C339.47 173.208 339.399 172.066 339.599 170.631L340.598 163.462C340.698 162.74 340.936 162.221 341.312 161.905C341.687 161.589 342.144 161.478 342.686 161.554C343.228 161.629 343.654 161.873 343.938 162.28C344.221 162.688 344.317 163.254 344.218 163.967L343.41 169.763C343.293 170.602 343.267 171.317 343.333 171.905C343.398 172.494 343.588 172.981 343.905 173.347C344.23 173.724 344.704 173.956 345.326 174.042C345.949 174.129 346.534 174.027 347.126 173.741C347.718 173.455 348.173 173.031 348.506 172.488C348.786 172.003 349.041 170.897 349.283 169.164L349.897 164.758C349.996 164.045 350.243 163.527 350.627 163.213C351.012 162.898 351.479 162.779 352.012 162.853C352.544 162.928 352.962 163.17 353.238 163.567C353.512 163.974 353.599 164.538 353.499 165.26L352.038 175.742C351.943 176.428 351.716 176.93 351.352 177.229C350.989 177.528 350.558 177.643 350.071 177.575C349.583 177.507 349.193 177.269 348.917 176.871C348.641 176.474 348.549 175.946 348.64 175.296L348.632 175.285Z" fill="#707070"/>
<path d="M360.402 166.047L360.341 166.48C361.099 165.73 361.88 165.213 362.685 164.92C363.498 164.628 364.392 164.559 365.376 164.696C366.36 164.834 367.152 165.156 367.844 165.675C368.535 166.195 369.013 166.86 369.278 167.67C369.451 168.145 369.547 168.646 369.538 169.169C369.539 169.694 369.484 170.349 369.373 171.144L368.435 177.878C368.334 178.601 368.095 179.129 367.709 179.452C367.324 179.776 366.873 179.906 366.34 179.832C365.808 179.758 365.392 179.507 365.111 179.081C364.829 178.655 364.733 178.09 364.833 177.377L365.673 171.346C365.839 170.154 365.804 169.22 365.558 168.541C365.312 167.863 364.697 167.455 363.704 167.317C363.063 167.227 362.44 167.334 361.863 167.649C361.276 167.963 360.815 168.432 360.478 169.067C360.222 169.583 360.001 170.574 359.795 172.054L359.163 176.586C359.061 177.318 358.813 177.845 358.427 178.168C358.033 178.49 357.574 178.611 357.033 178.535C356.491 178.46 356.111 178.213 355.83 177.788C355.549 177.362 355.453 176.796 355.552 176.083L357.01 165.62C357.106 164.934 357.331 164.441 357.677 164.139C358.022 163.837 358.461 163.724 358.985 163.797C359.301 163.841 359.58 163.953 359.811 164.142C360.043 164.331 360.219 164.585 360.331 164.905C360.443 165.224 360.472 165.605 360.412 166.039L360.402 166.047Z" fill="#707070"/>
<path d="M381.947 179.901L381.997 179.539C381.432 180.031 380.89 180.416 380.372 180.703C379.853 180.989 379.302 181.179 378.727 181.283C378.151 181.387 377.533 181.393 376.883 181.303C376.017 181.182 375.238 180.889 374.549 180.416C373.861 179.943 373.302 179.331 372.854 178.578C372.407 177.826 372.113 176.966 371.961 176.006C371.81 175.046 371.813 174.034 371.961 172.969C372.277 170.703 373.073 169.019 374.359 167.91C375.637 166.799 377.179 166.37 378.984 166.622C380.022 166.766 380.882 167.07 381.546 167.522C382.21 167.973 382.836 168.631 383.41 169.466L384.154 164.13C384.257 163.39 384.479 162.85 384.83 162.513C385.181 162.175 385.632 162.044 386.173 162.12C386.715 162.195 387.115 162.426 387.364 162.82C387.613 163.213 387.686 163.748 387.592 164.425L385.367 180.386C385.272 181.073 385.036 181.574 384.673 181.873C384.309 182.172 383.87 182.285 383.364 182.215C382.858 182.144 382.486 181.908 382.21 181.511C381.934 181.114 381.844 180.576 381.937 179.908L381.947 179.901ZM375.565 173.591C375.428 174.575 375.466 175.427 375.676 176.164C375.887 176.893 376.229 177.475 376.713 177.901C377.197 178.328 377.75 178.58 378.373 178.666C378.996 178.753 379.615 178.674 380.185 178.413C380.755 178.152 381.25 177.705 381.661 177.063C382.073 176.421 382.346 175.585 382.488 174.565C382.623 173.599 382.584 172.756 382.365 172.016C382.146 171.277 381.795 170.685 381.313 170.25C380.832 169.806 380.27 169.543 379.629 169.454C378.988 169.365 378.348 169.469 377.773 169.766C377.196 170.072 376.716 170.548 376.338 171.213C375.951 171.877 375.693 172.67 375.564 173.6L375.565 173.591Z" fill="#707070"/>
</g>
<defs>
<clipPath id="clip0_708_861">
<rect width="190.908" height="20.2904" fill="white" transform="translate(198.801 136) rotate(7.93298)"/>
</clipPath>
</defs>
</svg>
